<?xml version="1.0" encoding="utf-8"?>
<svg version="1.1" id="Layer_1" xmlns="http://www.w3.org/2000/svg" xmlns:xlink="http://www.w3.org/1999/xlink" x="0px" y="0px"
	 viewBox="0 0 400 400" style="enable-background:new 0 0 400 400;" xml:space="preserve">
<style type="text/css">
	.st0{fill:#FFFFFF;}
	.st1{fill:#7C93F9;}
</style>
<g>
	<path class="st0" d="M353.6,46.4h-43.9V2.5H90.3v43.9H46.4c-24.1,0-43.9,19.8-43.9,43.9v21.9c0,56,42.1,101.6,96.3,108.4
		c13.8,32.9,43.5,57.7,79.2,65v68H90.3v43.9h219.4v-43.9h-87.8v-68c35.8-7.2,65.4-32,79.2-65c54.2-6.8,96.3-52.4,96.3-108.4V90.3
		C397.5,66.1,377.8,46.4,353.6,46.4z M90.3,174.1c-25.5-9.2-43.9-33.4-43.9-61.9V90.3h43.9V174.1z M353.6,112.2
		c0,28.5-18.4,52.7-43.9,61.9V90.3h43.9V112.2z"/>
</g>
<g>
	<path class="st1" d="M219.5,144.2h-34.4v-6.5l17.1-15.8c4.9-4.5,8.6-9.8,8.6-14.8v-0.9c0-5.8-3.2-9.8-9.7-9.8
		c-6.5,0-9.5,3.9-10.9,8.9l-5.6-2.2c2-6.2,6.7-12.3,16.8-12.3c10.2,0,16.1,6.3,16.1,15.3c0,8.1-4.8,13.8-11.5,19.8l-14.1,12.7h27.6
		V144.2z"/>
</g>
</svg>
