<?xml version="1.0" encoding="utf-8"?>
<svg version="1.1" id="Layer_1" xmlns="http://www.w3.org/2000/svg" xmlns:xlink="http://www.w3.org/1999/xlink" x="0px" y="0px"
	 viewBox="0 0 400 400" style="enable-background:new 0 0 400 400;" xml:space="preserve">
<style type="text/css">
	.st0{fill:#FFFFFF;}
	.st1{fill:#7C93F9;}
</style>
<g>
	<path class="st0" d="M353.6,46.4h-43.9V2.5H90.3v43.9H46.4c-24.1,0-43.9,19.8-43.9,43.9v21.9c0,56,42.1,101.6,96.3,108.4
		c13.8,32.9,43.5,57.7,79.2,65v68H90.3v43.9h219.4v-43.9h-87.8v-68c35.8-7.2,65.4-32,79.2-65c54.2-6.8,96.3-52.4,96.3-108.4V90.3
		C397.5,66.1,377.8,46.4,353.6,46.4z M90.3,174.1c-25.5-9.2-43.9-33.4-43.9-61.9V90.3h43.9V174.1z M353.6,112.2
		c0,28.5-18.4,52.7-43.9,61.9V90.3h43.9V112.2z"/>
</g>
<g>
	<path class="st1" d="M199.1,114c7.1,0,10.7-3.7,10.7-8.7v-0.5c0-5.5-3.8-8.3-9.4-8.3c-5.4,0-8.6,2.6-10.8,6.5l-4.7-3.6
		c2.6-4.2,7.2-8.6,15.6-8.6c8.9,0,15.9,4.7,15.9,13.2c0,6.8-4.5,10.8-10.1,12.3v0.3c5.6,1.1,11,5.3,11,13.2c0,9-7.1,15.3-17.8,15.3
		c-9.1,0-13.8-4.4-17-8.9l4.7-3.6c2.7,4.1,5.8,6.9,12.2,6.9c7.4,0,11.3-3.5,11.3-9.7v-0.6c0-6.2-3.9-9.7-11.3-9.7h-6.2V114H199.1z"
		/>
</g>
</svg>
